<svg width="64" height="64" viewBox="0 0 64 64" fill="none" xmlns="http://www.w3.org/2000/svg">
<g clip-path="url(#clip0_35_78)">
<path d="M31.9998 30.2222H26.6665V33.7778H31.9998V30.2222Z" fill="black"/>
<path d="M47.0223 25.1911C43.8694 20.0317 39.5681 15.6696 34.4534 12.4445C32.0906 10.9469 29.3971 10.0506 26.6081 9.83365C23.8191 9.61673 21.0194 10.0858 18.4534 11.2C16.209 12.2587 14.256 13.8478 12.7631 15.8301C11.2702 17.8124 10.2822 20.1283 9.88455 22.5778C9.74233 23.4133 9.63566 24.2133 9.529 24.9956C7.86454 25.2653 6.35011 26.1178 5.25599 27.4008C4.16186 28.6838 3.55923 30.3138 3.55566 32V42.8978C3.55566 43.8408 3.93027 44.7451 4.59706 45.4119C5.26386 46.0787 6.16823 46.4533 7.11122 46.4533V35.5556V32C7.11122 31.057 7.48582 30.1526 8.15262 29.4859C8.81941 28.8191 9.72378 28.4445 10.6668 28.4445H43.9646C47.3909 28.4492 50.6755 29.8123 53.0983 32.2351C55.5211 34.6579 56.8843 37.9426 56.889 41.3689V42.6667H53.3334C52.5826 40.8358 51.1839 39.3454 49.4043 38.48C47.6247 37.6145 45.5888 37.4346 43.685 37.9745C41.7812 38.5144 40.1428 39.7364 39.0825 41.4073C38.0222 43.0781 37.6143 45.0809 37.9364 47.0334C38.2586 48.9858 39.2883 50.7514 40.8292 51.993C42.37 53.2347 44.3141 53.8656 46.2905 53.7653C48.2668 53.665 50.137 52.8405 51.5443 51.4493C52.9515 50.058 53.7973 48.1973 53.9201 46.2222H56.889C57.832 46.2222 58.7364 45.8476 59.4032 45.1808C60.07 44.514 60.4446 43.6097 60.4446 42.6667V41.3689C60.4374 37.5323 59.0933 33.8182 56.6436 30.8655C54.1939 27.9129 50.7917 25.9063 47.0223 25.1911ZM19.5557 24.8889H12.3201C12.3201 24.3378 12.4801 23.7689 12.5868 23.1111C12.8939 21.1582 13.6955 19.3162 14.9152 17.7604C16.135 16.2046 17.7324 14.9866 19.5557 14.2222V24.8889ZM23.1112 24.8889V13.4756C26.4302 13.0446 29.7963 13.773 32.6401 15.5378C36.5223 17.9559 39.873 21.1372 42.489 24.8889H23.1112ZM45.8668 50.4533C44.9877 50.4533 44.1285 50.1927 43.3976 49.7043C42.6667 49.216 42.097 48.5218 41.7606 47.7097C41.4243 46.8976 41.3362 46.004 41.5077 45.1418C41.6792 44.2797 42.1025 43.4878 42.7241 42.8662C43.3456 42.2446 44.1376 41.8213 44.9997 41.6499C45.8618 41.4784 46.7555 41.5664 47.5676 41.9028C48.3797 42.2392 49.0738 42.8088 49.5622 43.5397C50.0506 44.2706 50.3112 45.1299 50.3112 46.0089C50.3112 47.1876 49.843 48.3181 49.0095 49.1516C48.176 49.9851 47.0455 50.4533 45.8668 50.4533Z" fill="black"/>
<path d="M25.191 42.6667C24.4402 40.8358 23.0415 39.3454 21.2619 38.48C19.4823 37.6145 17.4464 37.4346 15.5426 37.9745C13.6388 38.5144 12.0004 39.7364 10.9401 41.4073C9.87982 43.0781 9.47182 45.0809 9.79398 47.0334C10.1161 48.9858 11.1459 50.7514 12.6868 51.993C14.2276 53.2347 16.1717 53.8656 18.148 53.7653C20.1244 53.665 21.9946 52.8405 23.4019 51.4493C24.8091 50.058 25.6548 48.1973 25.7777 46.2222H35.1999C35.1999 46.08 35.1999 45.92 35.1999 45.7778C35.1647 44.7289 35.2845 43.6806 35.5555 42.6667H25.191ZM17.7777 50.4533C16.8987 50.4533 16.0394 50.1927 15.3085 49.7043C14.5776 49.216 14.0079 48.5218 13.6715 47.7097C13.3352 46.8976 13.2471 46.004 13.4186 45.1418C13.5901 44.2797 14.0134 43.4878 14.635 42.8662C15.2565 42.2446 16.0485 41.8213 16.9106 41.6498C17.7727 41.4784 18.6664 41.5664 19.4785 41.9028C20.2906 42.2392 20.9847 42.8088 21.4731 43.5397C21.9615 44.2706 22.2221 45.1299 22.2221 46.0089C22.2221 47.1876 21.7539 48.3181 20.9204 49.1516C20.0869 49.9851 18.9564 50.4533 17.7777 50.4533Z" fill="black"/>
</g>
<defs>
<clipPath id="clip0_35_78">
<rect width="64" height="64" fill="white"/>
</clipPath>
</defs>
</svg>
