<svg width="30" height="31" viewBox="0 0 30 31" fill="none" xmlns="http://www.w3.org/2000/svg">
<path d="M0 14.8644C0 7.85712 -1.99606e-06 4.34986 2.10837 2.17637C4.21674 0.00288063 7.61163 0 14.4 0H15.6C22.3884 0 25.786 0 27.8916 2.17637C29.9972 4.35275 30 7.85712 30 14.8644V16.1031C30 23.1105 30 26.6177 27.8916 28.7912C25.7833 30.9647 22.3884 30.9676 15.6 30.9676H14.4C7.61163 30.9676 4.21395 30.9676 2.10837 28.7912C0.00278863 26.6148 0 23.1105 0 16.1031V14.8644Z" fill="black"/>
<path fill-rule="evenodd" clip-rule="evenodd" d="M6.18017 15.1237C10.9774 12.9661 14.1765 11.5435 15.7774 10.856C20.3486 8.89277 21.2974 8.55141 21.9169 8.54133C22.1444 8.53576 22.3676 8.60485 22.5546 8.73866C22.6854 8.85639 22.769 9.02021 22.789 9.19813C22.8223 9.41963 22.8317 9.64426 22.8169 9.86789C22.5686 12.5542 21.4969 19.0732 20.9513 22.0806C20.7211 23.3539 20.2676 23.7817 19.8267 23.8235C18.8709 23.9142 18.1453 23.171 17.2202 22.5444C15.7718 21.565 14.9527 20.96 13.5476 19.9979C11.922 18.8931 12.9755 18.2853 13.902 17.2929C14.1448 17.0322 18.3546 13.0784 18.4369 12.7198C18.4475 12.6671 18.4461 12.6127 18.4327 12.5607C18.4194 12.5087 18.3946 12.4606 18.3602 12.4202C18.3102 12.3869 18.2532 12.3664 18.194 12.3604C18.1348 12.3544 18.075 12.363 18.0197 12.3856C17.8746 12.4202 15.5606 13.9988 11.0779 17.1215C10.4202 17.5882 9.82529 17.8153 9.2932 17.8028C8.70436 17.7898 7.57413 17.46 6.73413 17.1777C5.70436 16.832 4.8853 16.6491 4.95646 16.0614C4.99274 15.7541 5.40064 15.4416 6.18017 15.1237Z" fill="white"/>
</svg>
