<svg width="30" height="31" viewBox="0 0 30 31" fill="none" xmlns="http://www.w3.org/2000/svg">
<path d="M0 14.8644C0 7.85712 -1.99606e-06 4.34986 2.10837 2.17637C4.21674 0.00287857 7.61162 0 14.4 0H15.6C22.3884 0 25.786 -2.06044e-06 27.8916 2.17637C29.9972 4.35274 30 7.85712 30 14.8644V16.1031C30 23.1105 30 26.6177 27.8916 28.7912C25.7833 30.9647 22.3884 30.9676 15.6 30.9676H14.4C7.61162 30.9676 4.21395 30.9676 2.10837 28.7912C0.00278863 26.6148 0 23.1105 0 16.1031V14.8644Z" fill="black"/>
<path d="M10.7579 7.32544L7.53467 10.6584V22.6609H11.411V25.9953L14.6398 22.6609H17.224L23.037 16.6604V7.32544H10.7579ZM21.7379 15.9877L19.1537 18.6538H16.5709L14.3105 20.9886V18.6596H11.404V8.65921H21.7379V15.9877Z" fill="white"/>
<path d="M19.8014 10.9927H18.5093V14.994H19.8014V10.9927Z" fill="white"/>
<path d="M16.2486 10.9927H14.9565V14.994H16.2486V10.9927Z" fill="white"/>
</svg>
