<svg width="64" height="64" viewBox="0 0 64 64" fill="none" xmlns="http://www.w3.org/2000/svg">
<g clip-path="url(#clip0_35_57)">
<path d="M23.9999 64.414L16.5859 57L17.2929 56.293C18.6169 54.969 18.9999 54.006 18.9999 52C18.9999 47.944 16.0559 45 11.9999 45C9.99394 45 9.03094 45.383 7.70694 46.707L6.99994 47.414L-0.414062 40L39.9999 -0.414001L47.4139 7L46.7069 7.707C45.3829 9.031 44.9999 9.994 44.9999 12C44.9999 16.056 47.9439 19 51.9999 19C54.0059 19 54.9689 18.617 56.2929 17.293L56.9999 16.586L64.4139 24L23.9999 64.414ZM19.3859 56.971L23.9999 61.586L61.5859 24L56.9719 19.386C55.5499 20.578 54.1809 21 51.9999 21C46.8689 21 42.9999 17.131 42.9999 12C42.9999 9.819 43.4219 8.45 44.6139 7.029L39.9999 2.414L2.41394 40L7.02794 44.614C8.44994 43.422 9.81894 43 11.9999 43C17.1309 43 20.9999 46.869 20.9999 52C20.9999 54.181 20.5779 55.55 19.3859 56.971Z" fill="black"/>
<path d="M30.7071 18.293L26.707 14.2929L25.2928 15.7071L29.2929 19.7072L30.7071 18.293Z" fill="black"/>
<path d="M49.7071 37.2927L45.707 33.2926L44.2928 34.7068L48.2929 38.7069L49.7071 37.2927Z" fill="black"/>
<path d="M36.7071 24.2929L32.707 20.2928L31.2928 21.707L35.2929 25.7071L36.7071 24.2929Z" fill="black"/>
<path d="M43.7071 31.2928L39.707 27.2927L38.2928 28.7069L42.2929 32.707L43.7071 31.2928Z" fill="black"/>
</g>
<defs>
<clipPath id="clip0_35_57">
<rect width="64" height="64" fill="white"/>
</clipPath>
</defs>
</svg>
