<svg width="64" height="64" viewBox="0 0 64 64" fill="none" xmlns="http://www.w3.org/2000/svg">
<path d="M20.59 27.0667H14.3643C13.8356 27.0667 13.4077 27.4946 13.4077 28.0233V34.249C13.4077 34.7771 13.8356 35.2057 14.3643 35.2057H20.59C21.1187 35.2057 21.5467 34.7771 21.5467 34.249V28.0233C21.5467 27.4953 21.1187 27.0667 20.59 27.0667ZM19.6334 33.2924H15.321V28.98H19.6334V33.2924Z" fill="black"/>
<path d="M35.1106 27.0667H28.8848C28.3562 27.0667 27.9282 27.4946 27.9282 28.0233V34.249C27.9282 34.7771 28.3562 35.2057 28.8848 35.2057H35.1106C35.6386 35.2057 36.0672 34.7771 36.0672 34.249V28.0233C36.0672 27.4953 35.6386 27.0667 35.1106 27.0667ZM34.1539 33.2924H29.8415V28.98H34.1539V33.2924Z" fill="black"/>
<path d="M49.1828 27.0667H42.9571C42.4291 27.0667 42.0005 27.4946 42.0005 28.0233V34.249C42.0005 34.7771 42.4291 35.2057 42.9571 35.2057H49.1828C49.7109 35.2057 50.1394 34.7771 50.1394 34.249V28.0233C50.1394 27.4953 49.7109 27.0667 49.1828 27.0667ZM48.2262 33.2924H43.9137V28.98H48.2262V33.2924Z" fill="black"/>
<path d="M20.59 41.2477H14.3643C13.8356 41.2477 13.4077 41.6762 13.4077 42.2043V48.43C13.4077 48.9581 13.8356 49.3866 14.3643 49.3866H20.59C21.1187 49.3866 21.5467 48.9581 21.5467 48.43V42.2043C21.5467 41.6762 21.1187 41.2477 20.59 41.2477ZM19.6334 47.4734H15.321V43.1609H19.6334V47.4734Z" fill="black"/>
<path d="M35.1106 41.2477H28.8848C28.3562 41.2477 27.9282 41.6762 27.9282 42.2043V48.43C27.9282 48.9581 28.3562 49.3866 28.8848 49.3866H35.1106C35.6386 49.3866 36.0672 48.9581 36.0672 48.43V42.2043C36.0672 41.6762 35.6386 41.2477 35.1106 41.2477ZM34.1539 47.4734H29.8415V43.1609H34.1539V47.4734Z" fill="black"/>
<path d="M49.1828 41.2477H42.9571C42.4291 41.2477 42.0005 41.6762 42.0005 42.2043V48.43C42.0005 48.9581 42.4291 49.3866 42.9571 49.3866H49.1828C49.7109 49.3866 50.1394 48.9581 50.1394 48.43V42.2043C50.1394 41.6762 49.7109 41.2477 49.1828 41.2477ZM48.2262 47.4734H43.9137V43.1609H48.2262V47.4734Z" fill="black"/>
<path d="M56.7594 8.542H50.4412C50.4329 8.542 50.4259 8.54391 50.4176 8.54455V7.27033C50.4176 5.18616 48.7225 3.49103 46.6383 3.49103C44.5542 3.49103 42.859 5.1868 42.859 7.27033V8.542H35.7398V7.27033C35.7398 5.18616 34.0447 3.49103 31.9605 3.49103C29.8764 3.49103 28.1812 5.1868 28.1812 7.27033V8.542H21.0614V7.27033C21.0614 5.18616 19.3663 3.49103 17.2821 3.49103C15.198 3.49103 13.5028 5.1868 13.5028 7.27033V8.54264C13.4996 8.54264 13.4964 8.542 13.4933 8.542H7.17635C6.64766 8.542 6.21973 8.96993 6.21973 9.49862V59.081C6.21973 59.6091 6.64766 60.0377 7.17635 60.0377H56.7594C57.2875 60.0377 57.716 59.6091 57.716 59.081V9.49862C57.716 8.96993 57.2875 8.542 56.7594 8.542ZM44.7723 7.27033C44.7723 6.241 45.609 5.40427 46.6383 5.40427C47.6677 5.40427 48.5044 6.241 48.5044 7.27033V12.549C48.5044 13.5777 47.6677 14.415 46.6383 14.415C45.609 14.415 44.7723 13.5783 44.7723 12.549V7.27033ZM31.9605 5.40427C32.9892 5.40427 33.8266 6.241 33.8266 7.27033V12.549C33.8266 13.5777 32.9899 14.415 31.9605 14.415C30.9312 14.415 30.0945 13.5783 30.0945 12.549V9.58791C30.097 9.55793 30.1034 9.52923 30.1034 9.49798C30.1034 9.46673 30.097 9.43804 30.0945 9.40806V7.27033C30.0945 6.241 30.9312 5.40427 31.9605 5.40427ZM15.4161 7.27033C15.4161 6.241 16.2528 5.40427 17.2821 5.40427C18.3108 5.40427 19.1482 6.241 19.1482 7.27033V12.549C19.1482 13.5777 18.3114 14.415 17.2821 14.415C16.2528 14.415 15.4161 13.5783 15.4161 12.549V7.27033ZM55.8028 58.1244H8.13297V10.4552H13.4933C13.4964 10.4552 13.4996 10.4546 13.5028 10.4546V12.5496C13.5028 14.6338 15.1986 16.3289 17.2821 16.3289C19.3656 16.3289 21.0614 14.6338 21.0614 12.5496V10.4559H28.1812V12.5496C28.1812 14.6338 29.877 16.3289 31.9605 16.3289C34.0441 16.3289 35.7398 14.6338 35.7398 12.5496V10.4559H42.859V12.5496C42.859 14.6338 44.5542 16.3289 46.6383 16.3289C48.7225 16.3289 50.4176 14.6338 50.4176 12.5496V10.4527C50.4259 10.4527 50.4329 10.4552 50.4412 10.4552H55.8028V58.1244Z" fill="black"/>
</svg>
