<svg width="64" height="64" viewBox="0 0 64 64" fill="none" xmlns="http://www.w3.org/2000/svg">
<g clip-path="url(#clip0_35_71)">
<path d="M64 32C64 14.3272 49.6727 0 32 0C14.3272 0 0 14.3272 0 32C0 49.6727 14.3272 64 32 64C49.6727 64 64 49.6727 64 32ZM2.90907 32C2.90907 15.9331 15.9331 2.90907 32 2.90907C48.0669 2.90907 61.0909 15.9331 61.0909 32C61.0909 48.0669 48.0669 61.0909 32 61.0909C15.9331 61.0909 2.90907 48.0669 2.90907 32Z" fill="black"/>
<path d="M37.1434 26.8566L16.5703 16.5759L26.8568 37.1432L47.4242 47.4297L37.1434 26.8566ZM29.1927 34.9208L21.2974 21.408L34.8422 29.181L29.1927 34.9208Z" fill="black"/>
</g>
<defs>
<clipPath id="clip0_35_71">
<rect width="64" height="64" fill="white"/>
</clipPath>
</defs>
</svg>
