<svg width="30" height="31" viewBox="0 0 30 31" fill="none" xmlns="http://www.w3.org/2000/svg">
<path d="M0 14.8644C0 7.85712 -1.99606e-06 4.34986 2.10837 2.17637C4.21674 0.00287857 7.61162 0 14.4 0H15.6C22.3884 0 25.786 -2.06044e-06 27.8916 2.17637C29.9972 4.35274 30 7.85712 30 14.8644V16.1031C30 23.1105 30 26.6177 27.8916 28.7912C25.7833 30.9647 22.3884 30.9676 15.6 30.9676H14.4C7.61162 30.9676 4.21395 30.9676 2.10837 28.7912C0.00278863 26.6148 0 23.1105 0 16.1031V14.8644Z" fill="black"/>
<path d="M23.1447 11.1627C23.0471 10.7879 22.8554 10.4462 22.5892 10.1721C22.3229 9.89803 21.9914 9.70118 21.628 9.6014C20.294 9.23267 14.9457 9.23267 14.9457 9.23267C14.9457 9.23267 9.59728 9.23267 8.26333 9.6014C7.90082 9.70211 7.57031 9.89935 7.30486 10.1734C7.03941 10.4474 6.84834 10.7885 6.75077 11.1627C6.39356 12.5397 6.39355 15.4118 6.39355 15.4118C6.39355 15.4118 6.39356 18.2838 6.75077 19.6608C6.84834 20.035 7.03941 20.3762 7.30486 20.6502C7.57031 20.9242 7.90082 21.1214 8.26333 21.2222C9.59728 21.5909 14.9457 21.5909 14.9457 21.5909C14.9457 21.5909 20.294 21.5909 21.628 21.2222C21.9904 21.1215 22.3207 20.9242 22.586 20.6502C22.8512 20.3762 23.0419 20.035 23.1391 19.6608C23.4963 18.2838 23.4964 15.4118 23.4964 15.4118C23.4964 15.4118 23.5019 12.5397 23.1447 11.1627ZM13.2377 18.0606V12.763L17.6833 15.4118L13.2377 18.0606Z" fill="white"/>
</svg>
