<svg width="30" height="31" viewBox="0 0 30 31" fill="none" xmlns="http://www.w3.org/2000/svg">
<path d="M0 14.8644C0 7.85712 -1.99606e-06 4.34986 2.10837 2.17637C4.21674 0.00287857 7.61163 0 14.4 0H15.6C22.3884 0 25.786 -2.06044e-06 27.8916 2.17637C29.9972 4.35274 30 7.85712 30 14.8644V16.1031C30 23.1105 30 26.6177 27.8916 28.7912C25.7833 30.9647 22.3884 30.9676 15.6 30.9676H14.4C7.61163 30.9676 4.21395 30.9676 2.10837 28.7912C0.00278863 26.6148 0 23.1105 0 16.1031V14.8644Z" fill="black"/>
<path d="M20.3514 10.1243C19.8749 9.80622 19.4661 9.39117 19.1502 8.90455C18.8342 8.41793 18.6177 7.86995 18.5137 7.29405C18.469 7.03548 18.448 6.77314 18.4509 6.5105H15.4342V18.9595C15.4097 19.6348 15.1329 20.2742 14.6618 20.7435C14.1907 21.2129 13.5619 21.4758 12.9072 21.4772C12.4977 21.4785 12.0937 21.3798 11.7281 21.1891C11.2291 20.9171 10.8323 20.4809 10.6008 19.9496C10.3694 19.4183 10.3164 18.8224 10.4504 18.2566C10.5844 17.6907 10.8977 17.1872 11.3405 16.8261C11.7833 16.4649 12.3303 16.2668 12.8947 16.2631C13.1479 16.2657 13.3994 16.3065 13.6412 16.3841V13.2009C13.3965 13.1611 13.1493 13.1399 12.9016 13.1376C11.7211 13.1352 10.5708 13.5223 9.61848 14.2424C8.66614 14.9625 7.96161 15.9778 7.60767 17.1403C6.91 19.4449 7.61744 21.9756 9.47047 23.4274C9.56256 23.5067 9.63512 23.5527 9.72163 23.6161C10.6589 24.27 11.7692 24.6086 12.9002 24.5855C14.3701 24.5855 15.7799 23.9836 16.8202 22.9118C17.8606 21.84 18.4466 20.386 18.4495 18.8687V12.5312C19.6699 13.4341 21.1341 13.9188 22.6356 13.9168V10.8344C21.8232 10.8343 21.0288 10.5873 20.3514 10.1243Z" fill="white"/>
</svg>
