<svg width="30" height="31" viewBox="0 0 30 31" fill="none" xmlns="http://www.w3.org/2000/svg">
<path d="M0 14.8644C0 7.85712 0 4.34986 2.10837 2.17637C4.21674 0.00288063 7.61163 0 14.4 0H15.6C22.3884 0 25.786 0 27.8916 2.17637C29.9972 4.35275 30 7.85712 30 14.8644V16.1031C30 23.1105 30 26.6177 27.8916 28.7912C25.7833 30.9647 22.3884 30.9676 15.6 30.9676H14.4C7.61163 30.9676 4.21395 30.9676 2.10837 28.7912C0.00279063 26.6148 0 23.1105 0 16.1031V14.8644Z" fill="black"/>
<path d="M15.6277 21.7492C9.22866 21.7492 5.58122 17.2208 5.42773 9.68628H8.63704C8.74169 15.2172 11.1054 17.5592 12.9766 18.0403V9.68628H15.9947V14.4567C17.8422 14.2508 19.7845 12.0773 20.4389 9.68628H23.457C22.9547 12.6332 20.8491 14.8067 19.3519 15.6998C20.8491 16.4199 23.2463 18.3198 24.1589 21.7492H20.831C20.118 19.4447 18.3403 17.673 15.9891 17.4282V21.7492H15.6277Z" fill="white"/>
</svg>
